<svg xmlns="http://www.w3.org/2000/svg" viewBox="0 0 16 16"><g><path d="M 0 16 L 0 0 L 16 0 L 16 16 Z" fill="transparent"></path><path d="M 14.643 7.177 L 11.831 9.604 L 12.688 13.234 C 12.735 13.431 12.723 13.637 12.652 13.827 C 12.582 14.018 12.457 14.183 12.294 14.302 C 12.13 14.421 11.934 14.489 11.732 14.497 C 11.529 14.505 11.329 14.453 11.156 14.347 L 8 12.405 L 4.842 14.347 C 4.669 14.453 4.469 14.504 4.267 14.496 C 4.065 14.487 3.87 14.419 3.706 14.3 C 3.543 14.181 3.418 14.016 3.348 13.826 C 3.278 13.637 3.266 13.43 3.312 13.234 L 4.172 9.604 L 1.36 7.177 C 1.207 7.045 1.096 6.871 1.042 6.676 C 0.987 6.482 0.992 6.275 1.054 6.083 C 1.116 5.89 1.233 5.721 1.391 5.595 C 1.549 5.469 1.741 5.392 1.942 5.374 L 5.63 5.077 L 7.052 1.634 C 7.129 1.447 7.261 1.286 7.429 1.173 C 7.597 1.06 7.796 1 7.998 1 C 8.201 1 8.399 1.06 8.568 1.173 C 8.736 1.286 8.867 1.447 8.944 1.634 L 10.366 5.077 L 14.054 5.374 C 14.255 5.391 14.448 5.468 14.606 5.593 C 14.765 5.719 14.883 5.889 14.945 6.082 C 15.008 6.274 15.012 6.481 14.958 6.676 C 14.903 6.871 14.793 7.046 14.639 7.178 Z" fill="var(--token-c2c4dd37-49da-448f-83b8-7513387cf04e, rgb(255, 71, 38))"></path></g></svg>